<?xml version="1.0" encoding="utf-8"?>
<!-- Generator: Adobe Illustrator 27.1.1, SVG Export Plug-In . SVG Version: 6.00 Build 0)  -->
<svg version="1.1" id="_レイヤー_2" xmlns="http://www.w3.org/2000/svg" xmlns:xlink="http://www.w3.org/1999/xlink" x="0px"
	 y="0px" viewBox="0 0 500 500" style="enable-background:new 0 0 500 500;" xml:space="preserve">
<style type="text/css">
	.st0{fill:#FFFFFF;stroke:#231815;stroke-width:7.2401;stroke-miterlimit:10;}
	.st1{fill:#FFE400;stroke:#231815;stroke-width:7.2401;stroke-miterlimit:10;}
	.st2{fill:#FFF2C9;stroke:#231815;stroke-width:7.2401;stroke-miterlimit:10;}
	.st3{fill:#FFF2C9;stroke:#000000;stroke-width:7.2401;stroke-miterlimit:10;}
	.st4{fill:#FFE400;stroke:#231815;stroke-width:7.2401;stroke-linecap:round;stroke-linejoin:round;stroke-miterlimit:10;}
	.st5{fill:#FFE400;stroke:#231815;stroke-width:7.2401;stroke-linejoin:round;stroke-miterlimit:10;}
</style>
<g id="_レイヤー_1-2">
	<g>
		<path class="st0" d="M156.7,603.9v100.5h-25.5c-8.7,0-15.6,8-15.6,17.9c0,10,7.1,17.9,15.6,17.9h81.6V603.9H156.7L156.7,603.9z"/>
		<g>
			<polygon class="st1" points="230.2,618.8 247.9,644.5 230.2,670 140,670 121.8,644.5 140,618.8 			"/>
			<polygon class="st1" points="230.2,567.6 247.9,593.1 230.2,618.8 140,618.8 121.8,593.1 140,567.6 			"/>
			<polygon class="st1" points="230.2,516.2 247.9,541.9 230.2,567.4 140,567.4 121.8,541.9 140,516.2 			"/>
		</g>
		<path class="st0" d="M344.2,603.9v100.5h25.3c8.7,0,15.6,8,15.6,17.9c0,10-7.1,17.9-15.6,17.9h-25.3h-40.5h-15.7V603.9H344.2
			L344.2,603.9z"/>
		<g>
			<polygon class="st1" points="270.7,618.8 253,644.5 270.7,670 360.9,670 379,644.5 360.9,618.8 			"/>
			<polygon class="st1" points="270.7,567.6 253,593.1 270.7,618.8 360.9,618.8 379,593.1 360.9,567.6 			"/>
			<polygon class="st1" points="270.7,516.2 253,541.9 270.7,567.4 360.9,567.4 379,541.9 360.9,516.2 			"/>
		</g>
		<path class="st1" d="M366.3,439.4c-0.5,0-230.4-0.2-231,0.2l-35.8,38c-0.4,0.2-0.4,0.5,0,0.7l35.8,37.8c0.2,0.2,30.8,0,31.3,0
			h166.7c0.4,0,34,0.2,34.4,0l33.5-37.8c0.4-0.2,0.4-0.5,0-0.7L366.3,439.4c-0.2-0.2-32.6,0.2-32.9,0.2"/>
		<path class="st1" d="M365.6,418.4l-114,95c-0.7,0.7-1.6,0.7-2.5,0l-114-94.8c-0.5-0.5-0.7-1.3-0.7-2l0.2-301
			c0-0.9,0.2-1.6,0.7-2.2l114-89.4c0.7-0.7,1.6-0.7,2.5,0l114,89.2c0.5,0.5,0.7,1.3,0.7,2.2l-0.2,301
			C366.3,417.2,366.1,417.9,365.6,418.4L365.6,418.4z"/>
		<path class="st2" d="M13.2,279.8c-50.3-1.8-61.2-3.3-118.2-2.4c-5.4,0.2-5.1,26.2-10.9,28.4c-6.3,2.2-5.8-9.2-6.9-25.2
			c-1.3-17.4-30.2,13.2-34.6,5.8c-4.9-8,20.5-19,22.3-24.4c2-6.2-33.7,0.5-34.6-9.1c-0.9-9.6,35.1-3.1,35.3-7.1
			c1.3-13.6-38.4-6.5-32.4-21.5c1.8-4.7,37.8,7.4,43.1,5.1c4.5-2-4.5-21.7-0.9-23c10.3-3.6,16.7,32.2,21.4,32.2
			c37.3,0.2,50.3,3.4,116.7,7.4"/>
		<path class="st3" d="M486.8,279.8c50.3-1.8,61.2-3.3,118.2-2.4c5.4,0.2,5.1,26.2,10.9,28.4c6.3,2.2,5.8-9.2,6.9-25.2
			c1.3-17.4,26.8,13.6,34.6,5.8c4.7-4.7-20.6-18.3-22.3-24.4c-1.6-6.2,34.8-3.1,34.6-9.1c-0.4-13.4-32.6-4.5-34.9-7.8
			c-2.7-3.8,35.7-8.9,31.9-21c-2.2-7.1-37.8,7.4-43.1,5.1c-4.5-2,7.8-21.4,0.9-23c-10.7-2.5-16.7,32.2-21.4,32.2
			c-37.3,0.2-50.3,3.4-116.7,7.4"/>
		<path class="st4" d="M133.9,348.7L101,401.2c-0.2,0.4-0.5,0.4-0.7,0l-32.9-52.5c-0.2-0.2-0.2-0.7-0.2-1.1V181.3
			c0-0.4,0-0.9,0.2-1.1l32.9-49.4c0.2-0.4,0.5-0.4,0.7,0l33.1,49.4c0.2,0.4,0.2,0.7,0.2,1.1v166.3
			C134.1,348,134.1,348.6,133.9,348.7L133.9,348.7z"/>
		<path class="st4" d="M66.7,348.7l-32.9,52.5c-0.2,0.4-0.5,0.4-0.7,0L0.1,348.7C0,348.6,0,348,0,347.7V181.3c0-0.4,0-0.9,0.2-1.1
			l32.9-49.4c0.2-0.4,0.5-0.4,0.7,0l33.1,49.4c0.2,0.4,0.2,0.7,0.2,1.1v166.3C66.9,348,66.7,348.6,66.7,348.7L66.7,348.7z"/>
		<path class="st1" d="M-0.6,348.7l-32.9,52.5c-0.2,0.4-0.5,0.4-0.7,0l-32.9-52.5c-0.2-0.2-0.2-0.7-0.2-1.1V181.3
			c0-0.4,0-0.9,0.2-1.1l32.9-49.4c0.2-0.4,0.5-0.4,0.7,0l33.1,49.4c0.2,0.4,0.2,0.7,0.2,1.1v166.3C-0.2,348-0.4,348.6-0.6,348.7
			L-0.6,348.7z"/>
		<g>
			<path class="st0" d="M226.6,244.7l-28.2,31.9c-0.2,0.2-0.4,0.2-0.5,0l-28.2-31.9c-0.2-0.2-0.2-0.4-0.2-0.7V142.8
				c0-0.4,0-0.5,0.2-0.7l28.2-30c0.2-0.2,0.4-0.2,0.5,0l28.2,30c0.2,0.2,0.2,0.4,0.2,0.7v101.2C226.7,244.1,226.7,244.5,226.6,244.7
				L226.6,244.7z"/>
			<path class="st0" d="M331.2,244.7L303,276.5c-0.2,0.2-0.4,0.2-0.5,0l-28.2-31.9c-0.2-0.2-0.2-0.4-0.2-0.7V142.8
				c0-0.4,0-0.5,0.2-0.7l28.2-30c0.2-0.2,0.4-0.2,0.5,0l28.4,30c0.2,0.2,0.2,0.4,0.2,0.7v101.2C331.4,244.1,331.4,244.5,331.2,244.7
				L331.2,244.7z"/>
		</g>
		<path class="st0" d="M289.9,435.6l-39.1,38.2c-0.2,0.4-0.5,0.4-0.9,0l-39.1-38.2c-0.2-0.2-0.2-0.5-0.2-0.9V313.6
			c0-0.4,0.2-0.7,0.2-0.9l39.1-36c0.2-0.4,0.5-0.4,0.9,0l39.3,36c0.2,0.2,0.2,0.5,0.2,0.9v121.1
			C290.1,435.1,290.1,435.3,289.9,435.6z"/>
		<path class="st0" d="M279.1,425.7l-28.4,31.9c-0.2,0.2-0.4,0.2-0.5,0l-28.4-31.9c-0.2-0.2-0.2-0.4-0.2-0.7V323.8
			c0-0.2,0-0.5,0.2-0.7l28.4-30c0.2-0.2,0.4-0.2,0.5,0l28.4,30c0.2,0.2,0.2,0.4,0.2,0.7v101.2C279.2,425.1,279.1,425.5,279.1,425.7
			L279.1,425.7z"/>
		<path class="st5" d="M366.7,348.7l32.9,52.5c0.2,0.4,0.5,0.4,0.7,0l32.9-52.5c0.2-0.2,0.2-0.7,0.2-1.1V181.3c0-0.4,0-0.9-0.2-1.1
			l-32.9-49.4c-0.2-0.4-0.5-0.4-0.7,0l-33.1,49.4c-0.2,0.4-0.2,0.7-0.2,1.1v166.3C366.5,348,366.7,348.6,366.7,348.7L366.7,348.7z"
			/>
		<path class="st5" d="M434,348.7l32.9,52.5c0.2,0.4,0.5,0.4,0.7,0l32.9-52.5c0.2-0.2,0.2-0.7,0.2-1.1V181.3c0-0.4,0-0.9-0.2-1.1
			l-32.9-49.4c-0.2-0.4-0.5-0.4-0.7,0l-33.1,49.4c-0.2,0.4-0.2,0.7-0.2,1.1v166.3C433.8,348,433.8,348.6,434,348.7L434,348.7z"/>
		<path class="st1" d="M501.1,348.7l32.9,52.5c0.2,0.4,0.5,0.4,0.7,0l32.9-52.5c0.2-0.2,0.2-0.7,0.2-1.1V181.3c0-0.4,0-0.9-0.2-1.1
			l-32.9-49.4c-0.2-0.4-0.5-0.4-0.7,0L501,180.2c-0.2,0.4-0.2,0.7-0.2,1.1v166.3C501,348,501,348.6,501.1,348.7L501.1,348.7z"/>
	</g>
</g>
</svg>
