<?xml version="1.0" encoding="utf-8"?>
<!-- Generator: Adobe Illustrator 27.1.1, SVG Export Plug-In . SVG Version: 6.00 Build 0)  -->
<svg version="1.1" id="_レイヤー_2" xmlns="http://www.w3.org/2000/svg" xmlns:xlink="http://www.w3.org/1999/xlink" x="0px"
	 y="0px" viewBox="0 0 468.1 288.5" style="enable-background:new 0 0 468.1 288.5;" xml:space="preserve">
<style type="text/css">
	.st0{fill:#FFFFFF;stroke:#231815;stroke-width:4;stroke-miterlimit:10;}
	.st1{fill:#FFE400;stroke:#231815;stroke-width:4;stroke-miterlimit:10;}
	.st2{fill:#FFF2C9;stroke:#231815;stroke-width:4;stroke-miterlimit:10;}
	.st3{fill:#FFF2C9;stroke:#000000;stroke-width:4;stroke-miterlimit:10;}
	.st4{fill:#FFE400;stroke:#231815;stroke-width:4;stroke-linecap:round;stroke-linejoin:round;stroke-miterlimit:10;}
	.st5{fill:#FFE400;stroke:#231815;stroke-width:4;stroke-linejoin:round;stroke-miterlimit:10;}
</style>
<g id="_レイヤー_1-2">
	<g>
		<path class="st0" d="M182.5,322.8v55.5h-14.1c-4.8,0-8.6,4.4-8.6,9.9s3.9,9.9,8.6,9.9h45.1v-75.3L182.5,322.8L182.5,322.8z"/>
		<g>
			<polygon class="st1" points="223.1,331 232.9,345.2 223.1,359.3 173.3,359.3 163.2,345.2 173.3,331 			"/>
			<polygon class="st1" points="223.1,302.7 232.9,316.8 223.1,331 173.3,331 163.2,316.8 173.3,302.7 			"/>
			<polygon class="st1" points="223.1,274.3 232.9,288.5 223.1,302.6 173.3,302.6 163.2,288.5 173.3,274.3 			"/>
		</g>
		<path class="st0" d="M286.1,322.8v55.5h14c4.8,0,8.6,4.4,8.6,9.9s-3.9,9.9-8.6,9.9h-14h-22.4H255v-75.3L286.1,322.8L286.1,322.8z"
			/>
		<g>
			<polygon class="st1" points="245.5,331 235.7,345.2 245.5,359.3 295.3,359.3 305.3,345.2 295.3,331 			"/>
			<polygon class="st1" points="245.5,302.7 235.7,316.8 245.5,331 295.3,331 305.3,316.8 295.3,302.7 			"/>
			<polygon class="st1" points="245.5,274.3 235.7,288.5 245.5,302.6 295.3,302.6 305.3,288.5 295.3,274.3 			"/>
		</g>
		<path class="st1" d="M298.3,231.9c-0.3,0-127.3-0.1-127.6,0.1l-19.8,21c-0.2,0.1-0.2,0.3,0,0.4l19.8,20.9c0.1,0.1,17,0,17.3,0
			l92.1,0c0.2,0,18.8,0.1,19,0l18.5-20.9c0.2-0.1,0.2-0.3,0-0.4L298.3,231.9c-0.1-0.1-18,0.1-18.2,0.1"/>
		<path class="st1" d="M297.9,220.3l-63,52.5c-0.4,0.4-0.9,0.4-1.4,0l-63-52.4c-0.3-0.3-0.4-0.7-0.4-1.1l0.1-166.3
			c0-0.5,0.1-0.9,0.4-1.2l63-49.4c0.4-0.4,0.9-0.4,1.4,0L298,51.7c0.3,0.3,0.4,0.7,0.4,1.2l-0.1,166.3
			C298.3,219.6,298.2,220,297.9,220.3L297.9,220.3z"/>
		<path class="st2" d="M103.2,143.7c-27.8-1-33.8-1.8-65.3-1.3c-3,0.1-2.8,14.5-6,15.7c-3.5,1.2-3.2-5.1-3.8-13.9
			c-0.7-9.6-16.7,7.3-19.1,3.2c-2.7-4.4,11.3-10.5,12.3-13.5c1.1-3.4-18.6,0.3-19.1-5s19.4-1.7,19.5-3.9c0.7-7.5-21.2-3.6-17.9-11.9
			c1-2.6,20.9,4.1,23.8,2.8c2.5-1.1-2.5-12-0.5-12.7c5.7-2,9.2,17.8,11.8,17.8c20.6,0.1,27.8,1.9,64.5,4.1"/>
		<path class="st3" d="M364.9,143.7c27.8-1,33.8-1.8,65.3-1.3c3,0.1,2.8,14.5,6,15.7c3.5,1.2,3.2-5.1,3.8-13.9
			c0.7-9.6,14.8,7.5,19.1,3.2c2.6-2.6-11.4-10.1-12.3-13.5s19.2-1.7,19.1-5c-0.2-7.4-18-2.5-19.3-4.3c-1.5-2.1,19.7-4.9,17.6-11.6
			c-1.2-3.9-20.9,4.1-23.8,2.8c-2.5-1.1,4.3-11.8,0.5-12.7c-5.9-1.4-9.2,17.8-11.8,17.8c-20.6,0.1-27.8,1.9-64.5,4.1"/>
		<path class="st4" d="M169.9,181.8l-18.2,29c-0.1,0.2-0.3,0.2-0.4,0l-18.2-29c-0.1-0.1-0.1-0.4-0.1-0.6l0-91.9c0-0.2,0-0.5,0.1-0.6
			l18.2-27.3c0.1-0.2,0.3-0.2,0.4,0l18.3,27.3c0.1,0.2,0.1,0.4,0.1,0.6l0,91.9C170,181.4,170,181.7,169.9,181.8L169.9,181.8z"/>
		<path class="st4" d="M132.8,181.8l-18.2,29c-0.1,0.2-0.3,0.2-0.4,0l-18.2-29c-0.1-0.1-0.1-0.4-0.1-0.6l0-91.9c0-0.2,0-0.5,0.1-0.6
			l18.2-27.3c0.1-0.2,0.3-0.2,0.4,0l18.3,27.3c0.1,0.2,0.1,0.4,0.1,0.6l0,91.9C132.9,181.4,132.8,181.7,132.8,181.8L132.8,181.8z"/>
		<path class="st1" d="M95.6,181.8l-18.2,29c-0.1,0.2-0.3,0.2-0.4,0l-18.2-29c-0.1-0.1-0.1-0.4-0.1-0.6l0-91.9c0-0.2,0-0.5,0.1-0.6
			L77,61.4c0.1-0.2,0.3-0.2,0.4,0l18.3,27.3c0.1,0.2,0.1,0.4,0.1,0.6l0,91.9C95.8,181.4,95.7,181.7,95.6,181.8L95.6,181.8z"/>
		<g>
			<path class="st0" d="M221.1,124.3l-15.6,17.6c-0.1,0.1-0.2,0.1-0.3,0l-15.6-17.6c-0.1-0.1-0.1-0.2-0.1-0.4l0-55.9
				c0-0.2,0-0.3,0.1-0.4L205.2,51c0.1-0.1,0.2-0.1,0.3,0l15.6,16.6c0.1,0.1,0.1,0.2,0.1,0.4l0,55.9
				C221.2,124,221.2,124.2,221.1,124.3L221.1,124.3z"/>
			<path class="st0" d="M278.9,124.3l-15.6,17.6c-0.1,0.1-0.2,0.1-0.3,0l-15.6-17.6c-0.1-0.1-0.1-0.2-0.1-0.4l0-55.9
				c0-0.2,0-0.3,0.1-0.4L263,51c0.1-0.1,0.2-0.1,0.3,0L279,67.6c0.1,0.1,0.1,0.2,0.1,0.4l0,55.9C279,124,279,124.2,278.9,124.3
				L278.9,124.3z"/>
		</g>
		<path class="st0" d="M256.1,229.8l-21.6,21.1c-0.1,0.2-0.3,0.2-0.5,0l-21.6-21.1c-0.1-0.1-0.1-0.3-0.1-0.5l0-66.9
			c0-0.2,0.1-0.4,0.1-0.5L234,142c0.1-0.2,0.3-0.2,0.5,0l21.7,19.9c0.1,0.1,0.1,0.3,0.1,0.5l0,66.9
			C256.2,229.5,256.2,229.6,256.1,229.8z"/>
		<path class="st0" d="M250.1,224.3l-15.7,17.6c-0.1,0.1-0.2,0.1-0.3,0l-15.7-17.6c-0.1-0.1-0.1-0.2-0.1-0.4l0-55.9
			c0-0.1,0-0.3,0.1-0.4l15.7-16.6c0.1-0.1,0.2-0.1,0.3,0l15.7,16.6c0.1,0.1,0.1,0.2,0.1,0.4l0,55.9
			C250.2,224,250.1,224.2,250.1,224.3L250.1,224.3z"/>
		<path class="st5" d="M298.5,181.8l18.2,29c0.1,0.2,0.3,0.2,0.4,0l18.2-29c0.1-0.1,0.1-0.4,0.1-0.6l0-91.9c0-0.2,0-0.5-0.1-0.6
			l-18.2-27.3c-0.1-0.2-0.3-0.2-0.4,0l-18.3,27.3c-0.1,0.2-0.1,0.4-0.1,0.6l0,91.9C298.4,181.4,298.5,181.7,298.5,181.8L298.5,181.8
			z"/>
		<path class="st5" d="M335.7,181.8l18.2,29c0.1,0.2,0.3,0.2,0.4,0l18.2-29c0.1-0.1,0.1-0.4,0.1-0.6l0-91.9c0-0.2,0-0.5-0.1-0.6
			l-18.2-27.3c-0.1-0.2-0.3-0.2-0.4,0l-18.3,27.3c-0.1,0.2-0.1,0.4-0.1,0.6l0,91.9C335.6,181.4,335.6,181.7,335.7,181.8L335.7,181.8
			z"/>
		<path class="st1" d="M372.8,181.8l18.2,29c0.1,0.2,0.3,0.2,0.4,0l18.2-29c0.1-0.1,0.1-0.4,0.1-0.6l0-91.9c0-0.2,0-0.5-0.1-0.6
			l-18.2-27.3c-0.1-0.2-0.3-0.2-0.4,0l-18.3,27.3c-0.1,0.2-0.1,0.4-0.1,0.6l0,91.9C372.7,181.4,372.7,181.7,372.8,181.8L372.8,181.8
			z"/>
	</g>
</g>
</svg>
