<?xml version="1.0" encoding="utf-8"?>
<!-- Generator: Adobe Illustrator 27.1.1, SVG Export Plug-In . SVG Version: 6.00 Build 0)  -->
<svg version="1.1" id="_レイヤー_2" xmlns="http://www.w3.org/2000/svg" xmlns:xlink="http://www.w3.org/1999/xlink" x="0px"
	 y="0px" viewBox="0 0 142.4 176.8" style="enable-background:new 0 0 142.4 176.8;" xml:space="preserve">
<style type="text/css">
	.st0{fill:#FFFFFF;}
</style>
<g>
	<g id="XMLID_00000032613237679840557900000013039684704581758094_">
		<g>
			<path d="M30.9,19c3-3.5,5.9-6.9,8.9-10.4v0c-2.5-0.3-4.6,0.5-6.2,1.9c-0.1,0.1-0.2,0.2-0.3,0.3C31.5,12.6,30.5,15.6,30.9,19z
				 M138,31.6c1.9,2,3.1,4.2,0.9,7.5c-1.3,2-0.9,5.5-0.4,8.1c5.1,25.4,5.1,50.8,0.2,76.3c-1.9,10-5.5,19.1-13.7,25.9
				c-2.9,2.4-5.5,5.3-7.9,8.3c-5.8,7-12.9,8.7-21.5,6.7c-1.8-0.4-4.3,0-6,1c-12.5,6.9-26.3,9.4-40.1,11.2
				c-6.1,0.8-12.1-0.3-17.5-3.5c0-0.5,0.1-0.9,0.1-1.4c4.8,0,9.7,0.1,14.5,0c3.8-0.1,8.1,0.9,9.6-4.6c0.3-1.1,3.1-2.1,4.7-2.1
				c5.6-0.1,11.1,0.2,16.7,0.4c0.8,0,1.8,0.4,2.4,0.1c11.4-6.5,22.8-13.1,34.2-19.5c1.2-0.7,2.8-0.8,4.6-1.3
				c-0.6,2.8-5.7,7.2-15.4,13.3c1.6,3,3.7,3.5,6.3,1.3c14.2-12,25.8-24.9,27.5-45.3c1.7-20.9,2.3-41.4-1.3-62
				c-1.2-6.7-2.7-12.2-9.8-15.9c-5.3-2.7-10-4.8-16.1-4.8c-6.1,0-12.1-2-18.2-2.4c-7-0.5-14-0.2-20.9-0.1
				c-7.3,0.1-14.6,0.3-21.9,0.7c-3.6,0.2-7.3,0.5-10.8,1.5c-6.9,1.9-8.3,2.4-8.5,7.4c-0.1,1.3-0.1,2.8,0,4.8H24
				c0.6-1.7,1.3-3.5,1.9-5.2c0.3-1,0.9-2.2,0.6-3c-0.3-0.8-1.9-2-2.4-1.7c-2.4,1-5.5,1.8-6.8,3.8c-8.4,12.5-11,26.1-6.6,40.8
				c4.1,13.5,5.5,27.2,4.6,41.4c-0.9,14.5,3.6,28.2,9.7,41.3c1.3,2.8,3.8,4.9,6.1,7.7c-1.2,0.3-2.3,0.5-3.4,0.5
				c-2.7,0-4.9-1.1-6.5-3.7c-2-3.4-3.5-7.2-4.9-10.8c-5.4-13.9-5.5-28.3-4.9-43c0.3-7.7-0.6-15.7-2.2-23.2C6.9,76.1,3,64.7,5.2,52.2
				c-1.5,1.8-3,3.6-5.2,6.2c0.3-10,16.6-41.3,23.7-44.4c-2.7,5.3-4.9,9.4-7,13.6c2.6-2.1,5.6-3.7,7.4-6.2c1.7-2.4,2-5.7,3-8.6
				c2-6.1,5.9-9.1,12.6-9c3.1,0.1,6.4-1.5,9.5-2.6c9-3.4,17.3,2.3,26.2,1.8c3.6-0.2,7.4,2.5,11.2,3.9c5.8,2.1,11.6,4,17.4,6.1
				c3.1,1.1,5.5,1.2,6.1-4.1h0c1.9,2,2.8,2.9,3.5,3.9c1.2,1.7,1.9,3.2,4.7,1.9c1.2-0.5,3.7,0.6,4.8,1.7
				C128.2,21.2,133.2,26.3,138,31.6z M62,11.4c0.3-0.9,0.6-1.8,0.9-2.6h0c-2.3-1-4.6-2.1-7-2.9c-0.2-0.1-0.4,0-0.7,0
				C55.1,5.9,55,6,54.9,6c0,0,0,0,0,0c-0.3,0.1-0.7,0.3-0.9,0.6c0,0-0.1,0.1-0.1,0.2c-0.2,0.4,0.1,1.6,0.5,1.9c0,0,0.1,0.1,0.1,0.1
				c2.1,0.9,4.3,1.6,6.5,2.3C61.3,11.2,61.6,11.3,62,11.4L62,11.4L62,11.4L62,11.4z"/>
			<path class="st0" d="M136,51.8c3.6,20.6,3.1,41.2,1.3,62c-1.7,20.4-13.3,33.2-27.5,45.3c-2.6,2.2-4.7,1.7-6.3-1.3
				c9.6-6.1,14.8-10.5,15.4-13.3c-1.8,0.5-3.4,0.6-4.6,1.3c-11.4,6.5-22.8,13.1-34.2,19.5c-0.6,0.3-1.6,0-2.4-0.1
				c-5.6-0.2-11.2-0.5-16.7-0.4c-1.7,0-4.4,1-4.7,2.1c-1.5,5.6-5.8,4.5-9.6,4.6c-4.8,0.2-9.7,0-14.5,0l-4.5-3.2
				c1.1,0,2.2-0.2,3.4-0.5c-2.2-2.8-4.8-5-6.1-7.7c-6.1-13.1-10.6-26.8-9.7-41.3c0.9-14.2-0.6-27.9-4.6-41.4
				c-4.4-14.7-1.8-28.3,6.6-40.8c1.3-1.9,4.4-2.8,6.8-3.8c0.5-0.2,2.1,0.9,2.4,1.7c0.3,0.8-0.3,2-0.6,3c-0.6,1.8-1.3,3.5-1.9,5.2
				h5.8l3.9,8.4c-6.5,3-11,9.2-13.2,15.3c-1.1,3.1-1.5,7.8,0,10.4c3.2,5.4,7.8,9.9,14.6,11.1c1.1,0.2,2.8,0.3,3.2,1
				c3.2,5.3,7.3,2.7,10.8,1c9.2-4.4,14.2-13.3,13.7-23.3l10.6-0.2C73.4,80.2,85.5,88.9,98.9,84c1.1-0.4,2.2-0.8,3.3-1
				c8.3-1.9,12.4-7.9,14.5-15.5c2.2-7.8-0.3-14.4-6.4-19.7c-1-0.9-1.8-1.8-3.2-3.2c3.9-0.6,6.9-0.9,9.7-1.7c1.1-0.3,1.7-2,2.5-3.1
				c-1.1-0.5-2.2-1.5-3.3-1.5c-5.2-0.2-10.3,0-15.5-0.5c-1.5-0.1-3.3-1.5-4.1-2.8c-2.9-4.7-5.1-5.5-10.5-3c-0.6,0.3-1.3,0.4-1.9,0.4
				c-9.3,0.3-18.7,1.6-27.9,0.6C48.4,32,41.2,32.5,33.9,35c-1.2,0.4-1.9,2.1-2.9,3.2l-1.3-0.1c0.2-5,1.6-5.5,8.5-7.4
				c3.5-0.9,7.2-1.3,10.8-1.5c7.3-0.4,14.6-0.6,21.9-0.7c7-0.1,14-0.4,20.9,0.1c6.1,0.4,12.1,2.4,18.2,2.4c6.1,0,10.8,2.1,16.1,4.8
				C133.3,39.6,134.8,45.2,136,51.8z M99,136.8c3.7-4.8,3.2-10.3-1.4-14.3c-8.7-7.6-18.5-12.9-30.8-13.7v0
				c-7.9,1.9-16.1,3.1-23.5,6.1c-5.4,2.2-10.4,6.5-14.3,10.9c-5.4,6.1-3.7,21.2,2.8,25.1c9.2,5.5,19.3,10.1,30.2,6.8
				c9.4-2.9,18.6-7.2,27.4-11.7C93.2,144.1,96.2,140.3,99,136.8z"/>
			<path d="M99.6,78.3c-0.1-0.1-0.2-0.1-0.3-0.2c-1.2-0.9-2.3-1.8-3.2-2.7c-8-8.1-3.9-18.2-1-28.1h0c-0.5,0-1.1,0-1.6,0.1
				c-0.5,0-1,0.1-1.5,0.2c-0.2,0-0.5,0.1-0.7,0.1c-1,0.2-1.9,0.5-2.7,0.8c0,0,0,0,0,0c-0.4,0.2-0.9,0.4-1.3,0.6c0,0,0,0,0,0
				c-1.7,0.8-3.2,1.9-4.4,3.3c-0.5,0.5-0.9,1-1.4,1.6c0,0,0,0,0,0c-0.7,1-1.4,2-1.9,3.2c0,0,0,0,0,0c-0.6,1.2-1.1,2.4-1.5,3.8
				c-1.3,4.2-1,8.9,0.6,12.8c0,0,0,0,0,0c0.3,0.6,0.6,1.3,0.9,1.9c0,0,0,0,0,0c0.8,1.5,1.9,2.9,3.1,4c0.5,0.5,1,0.9,1.6,1.2
				c4.2,2.8,10.3,2.1,14.3-1.7C99,79.1,99.3,78.7,99.6,78.3z M119.4,39.8c-0.8,1.1-1.5,2.8-2.5,3.1c-2.8,0.8-5.8,1.1-9.7,1.7
				c1.4,1.4,2.2,2.4,3.2,3.2c6,5.3,8.5,11.9,6.4,19.7c-2.1,7.6-6.2,13.6-14.5,15.5c-1.1,0.3-2.2,0.6-3.3,1
				c-13.4,4.9-25.5-3.9-25.6-17.3c0-1.3,0.1-2.7,0.3-4c1.2-7.6,3.8-11.5,12.9-18.8l0,0c-1-0.5-1.5-1-2.1-1.1
				c-8.3-1.1-16.6-2.3-24.9-3.3c-4.4-0.5-8.8-1.1-13.2-1.5c-3.8-0.4-7.8,1.1-11.8,1.5c-1.2,0.1-2.4-0.7-3.6-1.1
				c0.9-1.1,1.7-2.8,2.9-3.2c7.3-2.6,14.5-3.1,22.4-2.2c9.2,1,18.6-0.2,27.9-0.6c0.6,0,1.3-0.2,1.9-0.4c5.4-2.5,7.6-1.7,10.5,3
				c0.8,1.3,2.6,2.7,4.1,2.8c5.1,0.4,10.3,0.2,15.5,0.5C117.2,38.3,118.3,39.2,119.4,39.8z"/>
			<path class="st0" d="M99.3,78.2c0.1,0.1,0.2,0.1,0.3,0.2h0C99.5,78.3,99.4,78.2,99.3,78.2z"/>
			<path class="st0" d="M99.6,78.3L99.6,78.3c-0.3,0.4-0.6,0.7-1,1C98.9,79.1,99.3,78.7,99.6,78.3z"/>
			<path class="st0" d="M99.3,78.2c0.1,0.1,0.2,0.1,0.3,0.2c-0.3,0.4-0.6,0.7-1,1c-4,3.8-10.1,4.6-14.3,1.7
				c-0.6-0.4-1.1-0.8-1.6-1.2c-1.2-1.1-2.3-2.5-3.1-4c0,0,0,0,0,0c-0.3-0.6-0.6-1.2-0.9-1.9c0,0,0,0,0,0c-1.6-3.9-1.9-8.6-0.6-12.8
				c0.4-1.4,0.9-2.6,1.5-3.8c0,0,0,0,0,0c0.6-1.2,1.2-2.2,1.9-3.2c0,0,0,0,0,0c0.4-0.6,0.9-1.1,1.4-1.6c1.3-1.4,2.8-2.5,4.4-3.3
				c0,0,0,0,0,0c0.4-0.2,0.8-0.4,1.3-0.6c0,0,0,0,0,0c0.9-0.3,1.8-0.6,2.7-0.8c0.2,0,0.5-0.1,0.7-0.1c0.5-0.1,1-0.2,1.5-0.2
				c0.5,0,1-0.1,1.6-0.1c-2.9,9.9-7,20,1,28.1C97,76.4,98.1,77.3,99.3,78.2z"/>
			<path d="M29.6,135.3L29.6,135.3c1.6,8.7,3.7,13.7,12,16.4c6.8,2.2,13.4,3.3,19.9,2c2.5-0.5,5-1.4,7.6-2.7c0.8-0.4,1.5-0.7,2.3-1
				c0.2-0.1,0.5-0.2,0.8-0.3c1.8-0.6,3.6-1.1,5.3-1.8c5.1-2.1,9.7-4.7,13.4-8.4c1.7-1.7,3.2-3.6,4.6-5.8c2-3.3,2.2-6.6-0.9-9
				c-9.5-7.5-19.6-12.4-32.5-10.7c-0.6,0.1-1.3,0.2-1.9,0.3c-6.1,1.2-11.4,3.9-16.6,6.8c-1,0.6-2.1,1.2-3.1,1.8c0,0,0,0,0,0
				c-1,0.6-2.1,1.2-3.1,1.8c-0.5,0.3-1,0.6-1.6,0.9c-0.4,0.2-0.7,0.4-1,0.8c-0.2,0.1-0.3,0.3-0.5,0.5c-0.5,0.5-0.9,1.1-1.2,1.7l0,0
				C31.9,130.5,30.9,133.2,29.6,135.3z M97.6,122.5c4.6,4,5.1,9.5,1.4,14.3c-2.7,3.5-5.8,7.3-9.6,9.2c-8.8,4.5-17.9,8.8-27.4,11.7
				c-10.9,3.4-21.1-1.2-30.2-6.8c-6.5-3.9-8.1-19-2.8-25.1c3.9-4.4,8.9-8.7,14.3-10.9c7.4-3.1,15.6-4.2,23.5-6.1v0
				C79.1,109.5,88.8,114.9,97.6,122.5z"/>
			<path class="st0" d="M94.7,124.6c3.1,2.4,2.9,5.7,0.9,9c-1.3,2.2-2.9,4.1-4.6,5.8c1.7-1.7,3.2-3.6,4.6-5.8
				C97.5,130.4,97.7,127,94.7,124.6c-9.5-7.5-19.6-12.4-32.5-10.7c-0.6,0.1-1.2,0.2-1.9,0.3c0.6-0.1,1.2-0.2,1.9-0.3
				C75.1,112.2,85.2,117.1,94.7,124.6z"/>
			<path class="st0" d="M94.6,124.6c3.1,2.4,2.9,5.7,0.9,9c-1.3,2.2-2.8,4.1-4.6,5.8c-3.8,3.7-8.4,6.4-13.4,8.4
				c-1.7,0.7-3.6,1.2-5.3,1.8c-0.3,0.1-0.5,0.2-0.8,0.3c-0.8,0.3-1.6,0.6-2.3,1c-2.5,1.3-5.1,2.2-7.6,2.7c-6.5,1.3-13,0.3-19.9-2
				c-8.3-2.7-10.4-7.7-12-16.4h0c1.2-2.1,2.2-4.8,3.4-6.9l0,0c0.4-0.6,0.8-1.2,1.2-1.7c0.2-0.2,0.3-0.3,0.5-0.5
				c0.3-0.3,0.7-0.6,1-0.8c0.5-0.3,1-0.6,1.6-0.9c1-0.6,2.1-1.2,3.1-1.8c0,0,0,0,0,0c1-0.6,2-1.2,3.1-1.8c5.2-2.9,10.5-5.6,16.6-6.8
				c0.6-0.1,1.2-0.2,1.9-0.3C75.1,112.2,85.2,117.1,94.6,124.6z"/>
			<path class="st0" d="M95.1,47.4L95.1,47.4c-2.8,9.9-7,20,1,28.1C88.1,67.4,92.2,57.3,95.1,47.4z"/>
			<path class="st0" d="M86.6,43.8L86.6,43.8c-9.1,7.4-11.7,11.3-12.9,18.9c-0.2,1.4-0.3,2.7-0.3,4l-10.6,0.2
				c-0.1-1.3-0.2-2.7-0.5-4c-0.3-1.6-0.3-3.3-0.5-4.9h0c0.2-5.4-0.5-7.6-3.5-8l1.3-10.6c8.3,1,16.6,2.2,24.9,3.3
				C85,42.8,85.6,43.3,86.6,43.8z"/>
			<path class="st0" d="M72.2,149.7c-0.3,0.1-0.5,0.2-0.8,0.3C71.7,149.9,72,149.8,72.2,149.7z"/>
			<path class="st0" d="M55.9,5.9c2.4,0.8,4.7,1.9,7,2.9c-0.3,0.9-0.6,1.8-0.9,2.6c-0.3-0.1-0.6-0.2-0.9-0.3
				c-2.2-0.7-4.4-1.4-6.5-2.3c0,0-0.1,0-0.1-0.1c-0.4-0.4-0.7-1.5-0.5-1.9C54,6.7,54,6.7,54,6.6c0.2-0.2,0.5-0.4,0.9-0.6
				c0,0,0,0,0,0C55,6,55.1,6,55.2,5.9C55.5,5.8,55.7,5.8,55.9,5.9z"/>
			<path d="M42,84.8c-0.7-0.6-1.3-1.2-1.9-1.8c-0.4-0.5-0.9-0.9-1.2-1.4c-0.3-0.3-0.6-0.7-0.9-1c-0.3-0.5-0.7-0.9-1-1.4
				c-0.3-0.5-0.7-1.1-0.9-1.6c-0.4-0.8-0.7-1.6-1-2.3c-1.5-4.2-1.3-8.8,0.1-13.5c0.2-0.6,0.4-1.2,0.6-1.9c0.7-1.9,1.5-3.8,2.6-5.8v0
				c-2.2,0.5-4.2,1.5-6.1,2.8c-1.2,0.8-2.3,1.7-3.3,2.7c-4.6,4.6-7.3,11-5.9,15.8c0.4,1.4,1.3,2.8,2.6,4.1c0.3,0.3,0.5,0.6,0.9,0.8
				c0,0,0,0,0,0c1.1,0.9,2.3,1.8,3.6,2.5c0.2,0.1,0.4,0.2,0.6,0.3c0.8,0.4,1.6,0.7,2.4,1C36.2,85.3,39.3,85.6,42,84.8L42,84.8z
				 M62.7,66.9c0.5,10-4.5,18.8-13.7,23.3c-3.5,1.7-7.6,4.3-10.8-1c-0.4-0.7-2.1-0.8-3.2-1c-6.8-1.2-11.4-5.7-14.6-11.1
				c-1.5-2.6-1.1-7.2,0-10.4c2.2-6.1,6.7-12.3,13.2-15.3c4-1.8,8.7-2.5,14.3-1.2c1.6,0.4,3.3,0.3,4.9,0.1c2.4-0.4,4.1-0.5,5.5-0.3
				c3,0.4,3.6,2.6,3.5,8h0c0.1,1.6,0.2,3.3,0.5,4.9C62.5,64.2,62.6,65.6,62.7,66.9z"/>
			<polygon points="62,11.4 61.9,11.4 61.9,11.4 			"/>
			<rect x="61.9" y="11.4" class="st0" width="0" height="0"/>
			<path class="st0" d="M61.9,11.4L61.9,11.4L61.9,11.4c-0.3-0.1-0.6-0.2-0.9-0.3C61.3,11.2,61.6,11.3,61.9,11.4z"/>
			<path class="st0" d="M59.6,39.4L58.3,50c-1.3-0.2-3.1,0-5.5,0.3c-1.6,0.2-3.4,0.2-4.9-0.1c-5.5-1.3-10.3-0.6-14.3,1.2L29.7,43
				c0-2,0-3.5,0-4.8l1.3,0.1c1.2,0.4,2.4,1.2,3.6,1.1c4-0.4,7.9-1.8,11.8-1.5C50.8,38.3,55.2,38.8,59.6,39.4z"/>
			<path class="st0" d="M55.2,5.9C55.1,6,55,6,54.9,6C55,6,55.1,5.9,55.2,5.9z"/>
			<path class="st0" d="M54.9,6c-0.3,0.2-0.7,0.4-0.9,0.6C54.2,6.4,54.6,6.2,54.9,6z"/>
			<path class="st0" d="M54,6.6c0,0.1-0.1,0.1-0.1,0.2c-0.2,0.4,0.1,1.6,0.5,1.9c-0.4-0.3-0.7-1.5-0.5-1.9C54,6.7,54,6.6,54,6.6z"/>
			<path class="st0" d="M40.1,83c0.6,0.6,1.2,1.2,1.9,1.8C41.3,84.2,40.7,83.6,40.1,83z"/>
			<path class="st0" d="M40.1,83c0.6,0.6,1.2,1.2,1.9,1.8c-2.7,0.8-5.8,0.4-8.8-0.6c-0.8-0.3-1.6-0.6-2.4-1
				c-0.2-0.1-0.4-0.2-0.6-0.3c-1.3-0.7-2.6-1.6-3.6-2.5c0,0,0,0,0,0c-0.3-0.3-0.6-0.5-0.9-0.8c-1.2-1.3-2.1-2.7-2.6-4.1
				c-1.4-4.8,1.3-11.2,5.9-15.8c1-1,2.1-1.9,3.3-2.7c1.9-1.3,3.9-2.3,6.1-2.8c-1,2-1.9,3.9-2.6,5.8c-0.2,0.6-0.4,1.2-0.6,1.9
				c-1.4,4.7-1.6,9.2-0.1,13.5c0.3,0.8,0.6,1.6,1,2.3c0.3,0.5,0.6,1.1,0.9,1.6c0.3,0.5,0.6,0.9,1,1.4c0.3,0.3,0.5,0.7,0.9,1
				C39.2,82.1,39.6,82.5,40.1,83z"/>
			<path class="st0" d="M39.8,8.6L39.8,8.6L39.8,8.6c-2.5-0.3-4.6,0.5-6.2,1.9C35.1,9,37.3,8.3,39.8,8.6z"/>
			<path class="st0" d="M39.8,8.6c-3,3.5-5.9,6.9-8.9,10.4c-0.3-3.4,0.6-6.4,2.4-8.2c0.1-0.1,0.2-0.2,0.3-0.3
				C35.1,9,37.3,8.3,39.8,8.6z"/>
			<path class="st0" d="M38.4,54.1L38.4,54.1c-2.2,0.6-4.2,1.5-6.1,2.8C34.2,55.6,36.2,54.7,38.4,54.1z"/>
			<path class="st0" d="M33.6,10.5c-0.1,0.1-0.2,0.2-0.3,0.3C33.4,10.7,33.5,10.6,33.6,10.5z"/>
			<path class="st0" d="M32.3,56.9c-1.2,0.8-2.3,1.7-3.3,2.7C30,58.7,31.1,57.7,32.3,56.9z"/>
		</g>
		<g>
		</g>
	</g>
</g>
</svg>
